<?xml version="1.0" standalone="no"?>
<!DOCTYPE svg PUBLIC "-//W3C//DTD SVG 20010904//EN"
 "http://www.w3.org/TR/2001/REC-SVG-20010904/DTD/svg10.dtd">
<svg version="1.0" xmlns="http://www.w3.org/2000/svg"
 width="737.000000pt" height="737.000000pt" viewBox="0 0 737.000000 737.000000"
 preserveAspectRatio="xMidYMid meet">

<g transform="translate(0.000000,737.000000) scale(0.100000,-0.100000)"
fill="#000000" stroke="none">
<path d="M3298 6574 c-4 -3 8 -36 25 -72 45 -96 48 -177 12 -285 -50 -147 -33
-202 101 -330 144 -138 162 -206 95 -356 -47 -105 -56 -153 -41 -226 18 -86
135 -254 160 -229 7 7 -6 31 -38 71 -116 144 -124 230 -40 397 63 125 39 212
-95 343 -145 142 -160 188 -111 325 35 95 35 180 -1 274 -32 84 -49 107 -67
88z"/>
<path d="M3900 6517 c0 -7 7 -28 16 -46 29 -59 23 -92 -31 -157 -60 -74 -84
-126 -85 -184 0 -53 11 -71 92 -156 65 -70 78 -96 78 -159 0 -57 -10 -78 -97
-211 -40 -61 -80 -131 -88 -155 -20 -55 -21 -136 -2 -180 24 -57 87 -122 87
-90 0 5 -16 35 -35 67 -62 103 -48 171 75 353 75 112 104 187 94 245 -9 58
-25 85 -98 165 -107 115 -103 151 29 317 36 45 40 99 10 158 -20 41 -45 59
-45 33z"/>
<path d="M4455 6319 c-4 -19 -38 -63 -89 -118 -90 -94 -123 -157 -112 -211 3
-17 19 -62 36 -100 33 -75 37 -123 16 -173 -7 -18 -67 -87 -133 -152 -132
-132 -148 -161 -141 -249 5 -56 35 -113 51 -97 6 6 4 24 -7 51 -37 92 -16 137
129 280 59 58 116 123 126 145 28 60 24 124 -12 211 -51 123 -42 159 65 264
64 62 106 127 106 163 0 30 -28 18 -35 -14z"/>
<path d="M6557 6252 c-10 -10 -17 -32 -17 -50 0 -26 -5 -32 -37 -43 -75 -24
-138 -74 -191 -151 -18 -27 -38 -48 -43 -48 -6 0 -9 -12 -8 -27 5 -50 -12
-125 -27 -119 -7 3 -62 38 -121 77 -100 67 -198 156 -315 287 -39 43 -53 52
-81 52 -28 0 -43 -9 -79 -48 -24 -26 -53 -60 -63 -75 -16 -25 -19 -26 -35 -12
-9 8 -27 15 -40 15 -21 0 -22 -3 -18 -45 5 -44 4 -46 -33 -67 -40 -22 -79 -84
-79 -125 0 -16 -5 -19 -24 -16 -37 7 -62 -25 -75 -99 -6 -36 -11 -77 -11 -92
0 -31 -197 -436 -212 -436 -6 0 -12 9 -15 20 -8 28 -26 25 -46 -9 -17 -30 -11
-45 15 -36 7 3 19 1 26 -4 11 -6 7 -21 -17 -70 -31 -60 -61 -81 -61 -41 0 30
-18 24 -40 -12 -21 -34 -12 -61 12 -40 8 6 19 7 26 3 10 -6 6 -23 -19 -74 -33
-66 -59 -87 -59 -47 0 28 -15 25 -39 -9 -27 -38 -26 -44 4 -39 33 7 40 -6 24
-43 -10 -26 -16 -30 -38 -24 -14 4 -50 9 -78 12 -50 5 -54 3 -70 -25 -11 -19
-28 -33 -47 -36 -38 -8 -122 -93 -130 -133 -11 -47 8 -80 59 -105 l46 -22 -36
-18 c-80 -41 -79 -94 2 -130 52 -23 52 -22 -12 -117 -62 -95 -124 -162 -163
-178 -31 -13 -36 -12 -53 3 -11 9 -24 34 -29 54 -18 66 -39 291 -49 510 -10
236 -7 258 45 299 24 19 26 25 18 49 -32 90 -189 102 -418 31 -249 -77 -386
-173 -386 -269 1 -47 15 -62 81 -83 123 -38 198 -173 253 -456 14 -69 30 -166
36 -216 22 -184 57 -272 130 -339 122 -110 318 -115 471 -13 74 49 89 66 155
182 71 125 214 414 214 433 0 11 9 13 38 8 20 -3 43 -6 50 -6 10 0 8 -10 -8
-37 -17 -30 -19 -38 -8 -49 17 -16 221 -96 380 -148 70 -22 127 -46 128 -52 0
-6 -101 -231 -225 -499 -124 -268 -223 -491 -220 -495 3 -4 21 -11 40 -14 19
-4 35 -10 35 -13 0 -3 -74 -227 -164 -497 -145 -433 -278 -851 -347 -1088
l-22 -78 -693 0 c-654 0 -694 1 -694 18 0 9 -41 213 -90 452 -50 239 -102 491
-116 560 -14 69 -27 132 -30 141 -3 10 3 18 14 21 19 5 19 9 6 84 -7 44 -20
118 -27 167 l-14 87 64 31 c99 47 97 35 57 319 -25 171 -40 250 -51 263 -22
24 -101 45 -194 53 -89 8 -77 -10 -104 153 -9 51 -15 95 -13 97 2 1 42 -14 88
-35 117 -52 208 -75 269 -68 111 13 360 182 376 255 3 17 13 36 20 42 16 14
22 3 50 -95 10 -33 22 -55 31 -55 18 0 18 2 -11 99 -24 82 -24 84 -6 110 53
75 93 258 72 324 -12 34 -120 147 -141 147 -6 0 -7 25 -4 59 6 51 4 61 -15 80
-26 26 -51 27 -83 1 l-25 -19 -31 117 c-20 78 -27 121 -20 129 14 17 6 64 -13
76 -26 16 -68 0 -75 -29 -5 -21 -1 -32 23 -54 24 -23 34 -48 56 -139 24 -98
26 -114 13 -127 -8 -8 -17 -33 -20 -57 -17 -136 -39 -293 -43 -304 -3 -7 -8
-13 -12 -13 -3 0 -46 -6 -95 -14 l-88 -13 -18 41 c-10 23 -45 107 -79 188
-134 326 -206 444 -363 598 -79 78 -93 88 -160 109 -40 12 -78 29 -84 37 -6 8
-20 13 -30 12 -30 -4 -126 30 -158 55 l-29 24 23 55 c23 56 23 56 75 63 103
12 210 79 265 165 18 28 40 55 50 60 14 8 16 23 14 114 l-3 106 48 0 c83 0
144 59 127 124 -10 40 -70 100 -132 132 l-55 29 -18 -21 -17 -21 -34 24 c-117
82 -334 135 -417 102 -15 -7 -47 -11 -69 -10 -31 2 -48 -3 -67 -21 -40 -36
-125 -214 -133 -278 -4 -30 -13 -64 -20 -75 -29 -42 -8 -134 43 -187 23 -24
26 -36 27 -100 0 -80 -14 -118 -45 -118 -11 0 -24 -10 -30 -24 -18 -39 -57
-61 -230 -126 -258 -98 -276 -108 -335 -181 -207 -258 -540 -752 -635 -941
-125 -248 -62 -406 203 -511 149 -60 475 -128 492 -103 7 10 23 5 70 -24 34
-20 76 -42 94 -49 28 -12 32 -18 32 -50 0 -33 -4 -38 -53 -63 -84 -45 -83 -34
-42 -316 37 -256 36 -254 88 -287 15 -9 14 -28 -5 -208 -20 -187 -20 -198 -4
-210 16 -12 17 -29 7 -241 -6 -125 -11 -342 -11 -482 l0 -254 -675 0 -675 0 0
-180 c0 -99 2 -180 4 -180 28 0 470 144 634 206 64 24 117 43 118 41 9 -8
-422 -263 -623 -369 l-133 -70 0 -139 c0 -76 2 -139 5 -139 11 0 189 124 294
203 171 130 288 233 483 425 l107 106 -13 -50 c-8 -27 -64 -231 -126 -454 -61
-223 -118 -427 -125 -455 -8 -27 -23 -84 -34 -125 -25 -90 -25 -92 -4 -88 16
3 75 204 284 973 28 105 55 193 58 198 4 4 92 -219 196 -495 265 -706 253
-678 276 -678 18 0 18 2 4 38 -19 47 -130 343 -291 772 -70 184 -130 343 -136
353 -5 9 -6 17 -3 17 3 0 43 -29 90 -65 363 -277 845 -525 1340 -691 811 -271
1770 -352 2520 -214 588 108 1066 363 1360 725 27 33 46 53 43 45 -12 -33
-376 -948 -385 -967 -3 -8 3 -13 14 -13 17 0 57 94 256 592 129 326 238 586
241 578 3 -8 41 -184 86 -390 182 -845 167 -780 185 -780 8 0 15 7 15 15 0 12
-231 1083 -246 1140 -3 11 37 -23 88 -76 198 -205 411 -368 663 -506 139 -76
125 -86 125 90 l0 152 -102 44 c-132 56 -610 292 -605 298 3 2 64 -10 137 -27
150 -35 546 -120 560 -120 6 0 10 85 9 218 0 119 -2 213 -4 207 -2 -5 -11 -45
-20 -88 l-17 -77 -319 0 -319 0 0 528 c0 290 3 578 7 641 6 113 6 113 35 123
15 5 28 13 28 17 0 5 -8 104 -17 222 -12 160 -17 341 -17 714 -1 600 -1 603
108 934 89 271 122 395 137 524 19 161 -9 267 -90 340 -43 39 -93 57 -158 57
-71 0 -49 29 63 84 74 36 148 103 180 161 10 19 21 35 24 35 3 0 14 -14 24
-30 22 -38 61 -64 82 -56 13 5 15 15 11 41 l-6 35 38 -6 c31 -5 39 -3 45 12 6
14 -2 27 -29 51 l-36 31 33 7 c58 11 68 16 68 30 0 16 -16 22 -96 30 l-62 7 5
39 c8 54 -47 163 -122 246 -62 69 -186 157 -243 173 -60 16 -126 13 -145 -8z
m179 -46 c126 -64 259 -206 290 -312 l16 -55 -32 -57 c-18 -31 -34 -59 -36
-61 -7 -8 -145 112 -173 151 -16 22 -49 88 -72 147 -47 118 -85 180 -111 181
-10 0 -18 -4 -18 -10 0 -16 -20 -12 -26 5 -4 8 -1 22 6 30 21 25 82 18 156
-19z m-967 -44 c20 -21 64 -70 99 -110 65 -74 192 -175 300 -238 78 -46 75
-57 -5 -13 -138 76 -197 115 -263 174 -134 120 -182 124 -241 20 -17 -30 -34
-55 -37 -55 -4 0 -15 25 -25 56 -17 55 -17 56 4 87 34 50 102 117 117 117 8 0
31 -17 51 -38z m877 -37 c14 -21 65 -147 81 -197 3 -10 -13 -59 -35 -110 -50
-116 -55 -140 -38 -164 12 -15 27 -19 87 -19 61 0 74 -3 77 -17 2 -9 -7 -22
-19 -29 -30 -16 -125 -17 -141 -1 -7 7 -17 12 -23 12 -12 0 -35 -83 -35 -126
0 -21 -3 -24 -27 -18 -105 24 -212 106 -253 194 -13 28 -33 53 -47 59 -23 11
-24 13 -10 29 11 12 13 22 6 33 -6 12 -4 19 7 23 8 3 12 11 9 16 -11 18 6 72
21 66 22 -8 28 14 9 34 -25 27 -12 38 56 46 72 8 83 24 44 64 l-28 29 24 21
c32 28 76 51 124 66 63 20 92 17 111 -11z m-1085 -123 c26 -71 49 -188 49
-253 0 -40 -10 -68 -55 -155 -31 -58 -60 -128 -66 -155 -10 -46 -13 -49 -42
-49 -38 0 -113 -33 -144 -62 -13 -12 -25 -20 -27 -17 -14 15 23 472 40 501 3
4 22 8 43 8 38 0 38 0 45 49 8 61 36 97 87 113 43 12 43 12 23 78 -15 50 24 1
47 -58z m239 11 c14 -9 50 -39 80 -67 65 -58 157 -120 257 -169 43 -22 74 -45
78 -57 4 -11 20 -27 36 -35 16 -9 29 -21 29 -28 0 -7 16 -36 35 -66 19 -29 35
-56 35 -60 0 -4 -14 -25 -30 -48 l-30 -41 -84 -3 c-75 -4 -88 -7 -113 -30 -15
-14 -66 -51 -113 -81 -144 -93 -207 -171 -242 -302 -7 -25 -15 -46 -18 -46 -7
0 -15 13 -115 195 -78 142 -88 166 -87 208 1 61 15 103 62 186 55 98 63 131
57 230 -5 83 -4 88 25 136 17 28 37 60 45 73 16 27 58 29 93 5z m590 -13 c0
-4 -11 -10 -25 -12 -27 -6 -32 1 -14 19 12 12 39 7 39 -7z m-4255 -112 c82
-39 184 -83 225 -98 82 -31 97 -47 51 -56 -17 -4 -34 -10 -37 -15 -3 -5 11
-37 30 -72 20 -35 36 -69 36 -75 0 -7 -18 -15 -40 -18 -24 -4 -40 -12 -40 -20
0 -8 7 -14 15 -14 25 0 17 -18 -26 -65 -24 -26 -70 -59 -107 -77 -57 -28 -74
-32 -146 -32 -87 0 -148 20 -213 70 -30 23 -34 23 -40 8 -4 -11 1 -22 13 -32
31 -23 137 -72 159 -72 42 0 46 -13 19 -70 -13 -29 -30 -84 -36 -122 -7 -37
-15 -68 -18 -68 -3 0 -14 19 -25 41 -11 25 -37 53 -65 72 -25 17 -66 51 -92
75 l-47 44 16 41 c10 24 17 71 17 112 1 45 6 74 14 80 10 8 5 18 -26 43 -64
51 -93 158 -47 176 23 8 53 -28 66 -79 23 -93 56 -64 75 67 21 141 58 228 97
228 12 0 89 -32 172 -72z m116 33 c46 -22 111 -47 144 -56 68 -19 86 -31 62
-41 -38 -14 -307 91 -307 120 0 22 7 21 101 -23z m329 -70 c0 -21 -51 -47 -76
-37 -22 9 -12 30 17 34 13 2 28 8 34 13 15 14 25 11 25 -10z m4270 -98 c0 -7
7 -13 16 -13 8 0 25 -5 36 -11 15 -8 17 -13 8 -19 -8 -5 -10 -15 -6 -26 7 -18
8 -18 21 0 8 10 18 15 24 11 18 -11 12 -25 -10 -25 -17 0 -20 -4 -16 -22 3
-12 1 -30 -4 -40 -9 -16 -13 -17 -25 -7 -13 10 -17 10 -25 -2 -6 -9 -4 -18 7
-26 12 -9 13 -13 2 -19 -7 -5 -21 -7 -30 -6 -12 2 -18 -3 -18 -15 0 -25 -53
-55 -83 -48 -17 5 -26 2 -30 -9 -9 -24 -44 -20 -50 5 -4 15 -11 20 -21 16 -19
-7 -19 -6 -6 27 12 33 29 34 22 1 -5 -30 17 -35 25 -5 7 25 21 27 19 3 0 -10
6 -18 14 -18 8 0 14 8 14 17 -1 12 9 18 37 23 40 7 89 44 89 68 0 8 -8 25 -19
38 -16 20 -26 23 -90 21 -87 -1 -88 2 -35 119 l37 79 48 -52 c26 -29 48 -59
49 -65z m194 -7 c-3 -8 12 -23 41 -41 54 -31 55 -39 2 -23 -20 6 -40 8 -44 5
-4 -4 4 -25 16 -47 30 -54 19 -50 -23 7 -33 46 -34 47 -18 80 15 32 37 48 26
19z m-4604 -62 c0 -14 -3 -14 -15 -4 -8 7 -15 14 -15 16 0 2 7 4 15 4 8 0 15
-7 15 -16z m2799 -339 l-7 -170 -92 -210 c-51 -115 -93 -211 -95 -213 -1 -1
-16 3 -34 9 -43 15 -51 3 -51 -75 0 -131 -130 -470 -301 -787 -95 -175 -136
-225 -221 -267 -165 -81 -311 -63 -413 50 -58 64 -79 125 -99 283 -43 335
-105 538 -194 637 -36 40 -120 88 -153 88 -18 0 -29 20 -29 53 0 74 283 221
496 258 96 17 199 9 225 -18 l22 -21 -33 -40 c-42 -53 -45 -82 -31 -348 13
-235 33 -419 52 -483 43 -145 165 -93 309 131 32 51 64 99 71 107 7 7 13 24
15 36 1 13 35 93 75 178 64 135 77 156 100 161 31 6 43 30 29 56 -8 14 28 93
176 390 102 205 186 371 188 369 2 -2 0 -80 -5 -174z m1192 134 c53 -34 134
-59 192 -59 36 0 37 -1 31 -27 -4 -16 -9 -30 -11 -33 -7 -8 -245 -6 -275 3
-15 4 -36 17 -47 29 l-20 21 34 39 c19 21 35 43 35 48 0 16 10 12 61 -21z
m-146 -99 c3 -6 -6 -15 -20 -20 -41 -15 -49 -12 -24 10 27 22 35 24 44 10z
m-888 -102 c-46 -46 -92 -98 -102 -115 -20 -34 -42 -46 -31 -17 3 9 6 37 6 64
0 46 3 51 45 85 46 38 103 64 143 65 18 0 6 -16 -61 -82z m1041 44 l66 -7 -82
-47 c-45 -27 -84 -48 -87 -48 -3 0 -5 27 -5 61 0 56 1 60 21 54 11 -4 50 -10
87 -13z m-4721 -26 c-6 -14 47 -69 121 -125 l43 -33 -43 -48 c-24 -26 -46 -48
-50 -49 -10 -2 -90 247 -83 259 9 15 18 12 12 -4z m4473 -42 c-8 -14 -31 -35
-49 -47 -38 -23 -37 -21 12 51 22 33 32 41 40 33 9 -9 8 -18 -3 -37z m-4465
-144 c49 -142 66 -166 85 -116 9 24 10 24 75 -40 l66 -65 -25 -46 -26 -46 28
-48 28 -48 -28 -222 c-15 -122 -29 -227 -31 -232 -5 -16 -69 142 -112 274 -47
147 -88 311 -119 484 -40 226 -40 222 -19 234 10 6 21 11 24 11 4 0 28 -63 54
-140z m4575 102 c0 -10 -20 -33 -44 -50 l-44 -32 5 43 c7 47 16 57 56 57 20 0
27 -5 27 -18z m-4225 -82 c3 -6 -5 -10 -19 -10 -19 0 -26 5 -26 20 0 17 3 19
19 10 11 -5 23 -15 26 -20z m-127 -86 c18 -36 38 -64 44 -62 7 3 17 27 24 54
l12 49 1 -38 c1 -41 -18 -95 -40 -114 -20 -16 -97 41 -124 91 l-20 38 30 24
c17 13 32 24 35 24 3 0 20 -30 38 -66z m155 -126 c28 -171 51 -371 45 -388 -1
-5 -24 39 -50 98 l-47 107 16 54 16 55 -35 28 -35 28 23 47 c14 27 24 64 24
90 0 87 17 39 43 -119z m3132 -176 c9 -57 23 -125 30 -150 8 -25 13 -47 11
-49 -1 -2 -51 0 -110 4 l-108 6 8 41 c4 23 8 64 9 91 0 38 16 85 65 198 l65
148 7 -93 c4 -51 15 -140 23 -196z m-3216 109 c23 -18 24 -21 13 -59 -7 -21
-12 -46 -12 -55 0 -9 32 -89 71 -178 l72 -162 -12 -166 c-12 -175 -28 -291
-41 -291 -30 0 -180 212 -180 255 0 15 14 137 30 271 l31 244 -27 45 -26 45
22 35 c25 40 27 41 59 16z m2791 -81 c22 -11 40 -25 40 -31 0 -12 -29 -4 -73
18 -33 16 -32 17 -40 -18 -8 -31 1 -43 20 -27 9 7 17 8 24 1 7 -7 3 -25 -12
-56 -18 -36 -26 -44 -36 -36 -8 7 -10 21 -7 35 3 13 2 24 -3 24 -14 0 -35 68
-28 90 9 27 63 27 115 0z m-140 -66 c16 -41 12 -54 -25 -91 -19 -19 -33 -38
-30 -43 9 -14 64 -5 77 12 8 11 18 15 26 10 10 -7 9 -16 -4 -48 -20 -48 -21
-49 -36 -37 -7 6 -29 13 -48 17 -19 3 -50 15 -67 26 -51 31 -46 70 16 131 54
55 77 61 91 23z m360 1 c21 -22 22 -28 12 -67 -6 -24 -13 -81 -15 -128 -3 -47
-15 -120 -28 -163 l-23 -79 -45 7 c-25 4 -47 8 -48 9 -2 1 8 30 21 64 50 128
89 268 90 324 1 32 4 58 7 58 3 0 16 -11 29 -25z m-1664 -198 c-7 -43 -49
-131 -67 -143 -9 -5 -11 10 -6 59 5 54 3 67 -8 67 -7 0 -16 -8 -19 -18 -10
-29 -9 -118 0 -133 4 -7 8 -48 8 -90 1 -67 4 -81 25 -103 13 -14 33 -26 44
-28 17 -2 26 -19 46 -81 l24 -78 -34 -30 c-60 -52 -63 -52 -110 -16 -89 68
-97 121 -59 372 12 83 24 165 26 183 3 18 11 32 18 32 8 0 16 7 20 15 3 8 20
24 38 35 43 26 62 11 54 -43z m1302 -61 c-18 -37 -24 -43 -39 -35 -26 13 -49
11 -49 -5 0 -8 11 -17 25 -20 14 -4 25 -11 25 -17 0 -12 -35 -3 -67 17 -44 28
-22 53 76 89 52 20 53 19 29 -29z m-1231 -75 c51 -40 83 -91 83 -133 -1 -63
-63 -254 -80 -243 -4 2 -15 32 -24 65 -14 48 -15 64 -5 76 16 19 29 18 29 -4
0 -17 18 -42 30 -42 3 0 5 34 6 75 1 41 -1 75 -4 75 -3 0 -25 -20 -49 -45 -53
-56 -85 -60 -109 -13 -25 49 -14 126 27 183 18 25 36 45 40 45 4 0 29 -18 56
-39z m-2196 -333 c27 -106 48 -199 49 -206 0 -18 -23 -10 -149 49 -57 27 -132
70 -168 95 -76 54 -79 45 57 154 91 72 151 112 159 105 2 -3 26 -92 52 -197z
m1368 -294 c2 -2 13 -62 25 -135 24 -143 24 -143 -36 -137 -37 3 -34 -10 -53
221 l-7 89 34 -18 c18 -9 35 -18 37 -20z m-1255 -155 c4 -94 5 -173 3 -176 -7
-7 -85 34 -141 75 -45 33 -48 37 -42 70 10 62 55 141 99 173 73 53 73 52 81
-142z m160 110 c103 -44 136 -72 166 -141 28 -66 22 -76 -20 -34 -36 36 -60
46 -60 24 0 -7 23 -36 52 -65 28 -29 50 -54 47 -57 -8 -8 -79 21 -118 48 -43
30 -51 32 -51 11 0 -8 18 -28 40 -44 48 -35 43 -38 -79 -47 l-89 -7 -6 49 c-3
27 -8 109 -12 183 l-6 133 23 -7 c13 -4 64 -25 113 -46z m1373 -283 c84 -27
81 -46 -13 -90 -223 -106 -794 -196 -1241 -196 -196 0 -213 4 -213 54 0 13 -3
37 -6 55 -6 27 -3 32 22 42 48 19 284 76 367 89 l77 13 161 -58 c127 -46 162
-63 169 -80 14 -36 57 -46 84 -19 39 38 4 90 -53 80 -27 -5 -63 4 -151 35 -63
23 -119 45 -123 49 -8 7 58 15 301 40 42 5 187 7 322 6 195 -3 256 -7 297 -20z
m73 -111 c0 -72 -379 -177 -825 -229 -428 -50 -830 -34 -848 34 -6 24 -12 24
86 4 67 -14 125 -15 356 -11 274 5 400 17 651 58 228 37 447 97 525 142 42 25
55 25 55 2z m-1575 -100 c4 -31 6 -58 4 -60 -2 -2 -26 4 -54 13 -65 22 -69 43
-13 76 24 14 46 26 50 26 4 0 10 -25 13 -55z m1600 -92 c19 -141 22 -133 -47
-169 -32 -17 -31 -21 -47 122 -16 132 -16 131 27 153 20 11 40 20 43 21 3 0
14 -57 24 -127z m-141 35 c11 -63 26 -190 26 -211 0 -19 -13 -26 -93 -50 -96
-28 -348 -80 -449 -92 -56 -7 -58 -7 -58 16 -1 13 -7 73 -14 132 -12 106 -12
108 8 112 12 2 66 11 121 20 125 20 301 59 380 85 77 25 73 25 79 -12z m-1369
-132 l100 -11 17 -95 c9 -52 19 -110 22 -129 l5 -34 -87 6 c-98 6 -176 23
-191 41 -10 12 -41 192 -41 235 0 18 4 18 38 9 20 -6 82 -16 137 -22z m747
-98 c9 -73 15 -134 13 -136 -11 -12 -488 -40 -565 -33 -12 1 -20 27 -34 109
-10 59 -20 117 -23 130 -5 22 -4 22 97 22 99 0 461 28 469 36 20 20 29 -8 43
-128z m784 -14 c-15 -38 -236 -113 -473 -158 -534 -103 -1193 -110 -1193 -12
0 11 10 11 58 -1 182 -45 754 -16 1124 57 227 45 440 112 470 147 12 15 13 15
16 -1 2 -9 1 -24 -2 -32z m2701 -493 c80 -175 159 -462 243 -883 28 -137 50
-251 50 -253 0 -3 -160 -5 -355 -5 -195 0 -355 3 -355 8 0 4 9 36 21 72 45
145 181 601 253 850 43 146 79 273 82 283 9 28 24 10 61 -72z m-3254 -676
l155 -465 -290 0 -290 0 6 28 c3 15 35 218 71 452 37 234 68 431 70 438 3 8
25 12 64 12 l59 0 155 -465z m-1112 -600 c918 -210 1805 -351 2424 -386 475
-26 994 29 1624 172 246 56 618 159 841 233 58 19 106 33 108 31 5 -5 -117
-88 -233 -160 -673 -416 -1523 -630 -2329 -586 -654 36 -1304 180 -1996 443
-268 102 -700 296 -700 314 0 3 4 3 8 0 5 -3 118 -30 253 -61z"/>
<path d="M6486 5951 c-11 -17 3 -31 29 -31 15 0 35 -13 54 -37 33 -40 50 -38
35 4 -15 44 -102 91 -118 64z"/>
<path d="M6480 5885 c0 -28 20 -41 48 -30 16 6 16 7 0 19 -10 7 -18 18 -18 25
0 6 -7 11 -15 11 -9 0 -15 -9 -15 -25z"/>
<path d="M2083 5770 c-54 -32 -37 -56 17 -25 37 21 65 18 98 -10 31 -26 47
-21 36 9 -8 22 -56 46 -91 46 -15 0 -43 -9 -60 -20z"/>
<path d="M2166 5713 c-12 -12 -6 -33 9 -33 8 0 15 6 15 14 0 17 -14 28 -24 19z"/>
<path d="M1993 5603 c-20 -7 -15 -72 8 -120 39 -80 135 -113 229 -79 50 17
130 74 130 91 0 10 -10 15 -28 15 -15 0 -74 23 -132 50 -80 38 -116 50 -150
49 -25 0 -51 -3 -57 -6z"/>
<path d="M6750 5816 c0 -21 21 -31 30 -15 5 7 6 17 4 21 -9 14 -34 9 -34 -6z"/>
<path d="M6786 5783 c-12 -12 -6 -33 9 -33 8 0 15 6 15 14 0 17 -14 28 -24 19z"/>
<path d="M6706 5735 c-4 -10 1 -15 14 -15 11 0 20 7 20 15 0 8 -6 15 -14 15
-8 0 -16 -7 -20 -15z"/>
<path d="M6757 5716 c-7 -16 1 -26 20 -26 7 0 13 9 13 20 0 23 -25 27 -33 6z"/>
<path d="M6843 5723 c-18 -6 -16 -33 1 -33 19 0 31 19 20 30 -5 4 -15 5 -21 3z"/>
<path d="M6864 5649 c-3 -6 -2 -15 4 -21 13 -13 32 -2 32 18 0 16 -26 19 -36
3z"/>
<path d="M6770 5520 c0 -23 25 -27 33 -6 7 16 -1 26 -20 26 -7 0 -13 -9 -13
-20z"/>
<path d="M7339 5273 c-36 -38 -51 -70 -88 -188 -152 -473 -286 -1299 -251
-1543 12 -87 37 -139 96 -202 l43 -47 -9 -87 c-11 -95 6 -319 36 -460 35 -169
99 -327 169 -415 l35 -44 0 106 c0 104 0 105 -36 158 -76 113 -132 251 -158
389 -17 87 -21 286 -7 308 6 10 27 0 87 -43 106 -76 114 -80 114 -57 0 13 -27
38 -77 73 -43 29 -112 87 -154 129 -98 96 -109 128 -109 319 0 257 71 704 185
1161 55 221 99 356 131 398 14 18 24 42 22 53 -3 19 -5 19 -29 -8z"/>
<path d="M3745 3453 c-16 -2 -110 -24 -207 -48 -98 -25 -180 -45 -183 -45 -3
0 -5 -7 -5 -15 0 -8 5 -15 11 -15 6 0 90 20 187 44 97 24 205 47 240 51 43 5
62 11 62 21 0 14 -35 16 -105 7z"/>
<path d="M0 3413 c0 -13 31 -31 113 -65 179 -76 275 -109 283 -97 10 16 -2 23
-126 69 -63 24 -148 58 -189 76 -40 19 -75 34 -77 34 -2 0 -4 -8 -4 -17z"/>
<path d="M3440 3078 c0 -12 22 -16 108 -21 59 -4 184 -18 277 -33 176 -27 398
-37 403 -19 1 6 -43 13 -109 17 -61 4 -186 19 -278 33 -213 34 -401 45 -401
23z"/>
<path d="M605 2959 c-339 -92 -575 -172 -575 -195 0 -8 3 -14 6 -14 3 0 78 24
167 54 89 30 256 80 372 111 231 62 255 70 255 85 0 17 -37 10 -225 -41z"/>
<path d="M3320 2831 c0 -26 42 -75 88 -102 64 -39 204 -150 279 -222 62 -60
74 -67 80 -52 5 15 -9 33 -63 83 -74 69 -185 156 -274 215 -31 20 -64 50 -73
67 -21 34 -37 39 -37 11z"/>
<path d="M809 2592 c-41 -27 -117 -84 -169 -127 -132 -108 -127 -103 -107
-111 11 -4 48 20 119 78 57 47 138 108 181 137 42 29 75 56 72 62 -10 15 -19
11 -96 -39z"/>
<path d="M6444 837 c-3 -9 6 -191 20 -404 14 -213 26 -398 26 -410 0 -16 6
-23 20 -23 18 0 19 5 14 73 -3 39 -16 226 -28 415 -22 321 -33 398 -52 349z"/>
</g>
</svg>
